<?xml version="1.0" encoding="UTF-8"?>
<!DOCTYPE svg PUBLIC "-//W3C//DTD SVG 1.1//EN" "http://www.w3.org/Graphics/SVG/1.1/DTD/svg11.dtd">
<svg xmlns="http://www.w3.org/2000/svg" version="1.1" width="299px" height="303px" style="shape-rendering:geometricPrecision; text-rendering:geometricPrecision; image-rendering:optimizeQuality; fill-rule:evenodd; clip-rule:evenodd" xmlns:xlink="http://www.w3.org/1999/xlink">
<g><path style="opacity:0.004" fill="#fefffe" d="M 29.5,-0.5 C 29.8333,-0.5 30.1667,-0.5 30.5,-0.5C 30.3147,0.170143 29.9813,0.170143 29.5,-0.5 Z"/></g>
<g><path style="opacity:1" fill="#edc642" d="M 298.5,92.5 C 298.5,94.5 298.5,96.5 298.5,98.5C 286.509,99.1108 274.509,99.6108 262.5,100C 273.077,106.824 278.41,116.49 278.5,129C 275.794,154.07 271.627,178.903 266,203.5C 255.582,204.487 245.082,204.82 234.5,204.5C 236.705,183.229 239.705,162.063 243.5,141C 243.175,131.075 238.008,126.242 228,126.5C 219.029,126.653 212.362,130.653 208,138.5C 203.282,159.759 198.948,181.092 195,202.5C 193.933,203.191 192.766,203.691 191.5,204C 181.839,204.5 172.172,204.666 162.5,204.5C 164.845,183.415 167.845,162.415 171.5,141.5C 170.812,129.474 164.479,124.64 152.5,127C 149.607,127.631 146.774,128.464 144,129.5C 130.914,126.103 117.748,123.103 104.5,120.5C 105.352,112.556 106.685,104.722 108.5,97C 119.495,96.5002 130.495,96.3335 141.5,96.5C 141.311,100.348 141.311,104.015 141.5,107.5C 153.088,97.5853 166.422,94.0853 181.5,97C 191.789,99.3786 199.289,105.212 204,114.5C 211.189,107.157 219.356,101.157 228.5,96.5C 216.357,69.5798 195.357,57.2464 165.5,59.5C 126.858,61.5536 98.0245,79.2203 79,112.5C 62.9873,141.938 59.3206,172.938 68,205.5C 79.0023,229.824 97.8356,243.324 124.5,246C 160.264,248.948 188.598,235.948 209.5,207C 232.641,206.006 255.641,205.506 278.5,205.5C 270.006,227.617 256.673,246.45 238.5,262C 208.325,286.088 173.992,299.588 135.5,302.5C 130.167,302.5 124.833,302.5 119.5,302.5C 101.814,301.492 84.4811,297.992 67.5,292C 56.436,286.479 46.1027,279.979 36.5,272.5C 11.7298,248.39 -0.270235,218.89 0.5,184C 1.84092,115.079 31.5076,62.4121 89.5,26C 129.072,3.4044 171.072,-2.92893 215.5,7C 260.378,19.0417 288.045,47.5417 298.5,92.5 Z"/></g>
<g><path style="opacity:0.004" fill="#fefffe" d="M 15.5,15.5 C 16.8333,16.1667 16.8333,16.1667 15.5,15.5 Z"/></g>
<g><path style="opacity:0.004" fill="#fefffe" d="M 31.5,31.5 C 32.8333,32.1667 32.8333,32.1667 31.5,31.5 Z"/></g>
<g><path style="opacity:0.004" fill="#fefffe" d="M 5.5,38.5 C 6.83333,39.1667 6.83333,39.1667 5.5,38.5 Z"/></g>
<g><path style="opacity:0.004" fill="#fefffe" d="M 14.5,44.5 C 15.8333,45.1667 15.8333,45.1667 14.5,44.5 Z"/></g>
<g><path style="opacity:0.004" fill="#fefffe" d="M 36.5,48.5 C 37.8333,49.1667 37.8333,49.1667 36.5,48.5 Z"/></g>
<g><path style="opacity:0.004" fill="#fefffe" d="M 42.5,57.5 C 43.8333,58.1667 43.8333,58.1667 42.5,57.5 Z"/></g>
<g><path style="opacity:0.004" fill="#fefffe" d="M 141.5,78.5 C 142.833,79.1667 142.833,79.1667 141.5,78.5 Z"/></g>
<g><path style="opacity:0.004" fill="#fefffe" d="M 132.5,93.5 C 133.833,94.1667 133.833,94.1667 132.5,93.5 Z"/></g>
<g><path style="opacity:0.004" fill="#fefffe" d="M 84.5,108.5 C 85.8333,109.167 85.8333,109.167 84.5,108.5 Z"/></g>
<g><path style="opacity:0.004" fill="#fefffe" d="M 5.5,110.5 C 6.83333,111.167 6.83333,111.167 5.5,110.5 Z"/></g>
<g><path style="opacity:0.004" fill="#fefffe" d="M 10.5,112.5 C 11.8333,113.167 11.8333,113.167 10.5,112.5 Z"/></g>
<g><path style="opacity:0.004" fill="#fefffe" d="M 0.5,120.5 C 1.83333,121.167 1.83333,121.167 0.5,120.5 Z"/></g>
<g><path style="opacity:0.004" fill="#fefffe" d="M 137.5,131.5 C 138.833,132.167 138.833,132.167 137.5,131.5 Z"/></g>
<g><path style="opacity:0.004" fill="#fefffe" d="M 227.5,131.5 C 228.833,132.167 228.833,132.167 227.5,131.5 Z"/></g>
<g><path style="opacity:0.004" fill="#fefffe" d="M 99.5,132.5 C 100.833,133.167 100.833,133.167 99.5,132.5 Z"/></g>
<g><path style="opacity:0.004" fill="#fefffe" d="M 284.5,134.5 C 285.833,135.167 285.833,135.167 284.5,134.5 Z"/></g>
<g><path style="opacity:0.004" fill="#fefffe" d="M 226.5,136.5 C 227.833,137.167 227.833,137.167 226.5,136.5 Z"/></g>
<g><path style="opacity:1" fill="#edc641" d="M 101.5,136.5 C 112.189,137.95 123.189,139.283 134.5,140.5C 131.111,161.166 127.611,181.833 124,202.5C 112.94,204.045 101.773,204.712 90.5,204.5C 93.332,181.958 96.9986,159.292 101.5,136.5 Z"/></g>
<g><path style="opacity:0.004" fill="#fefffe" d="M 283.5,157.5 C 284.833,158.167 284.833,158.167 283.5,157.5 Z"/></g>
<g><path style="opacity:0.004" fill="#fefffe" d="M 227.5,161.5 C 228.833,162.167 228.833,162.167 227.5,161.5 Z"/></g>
<g><path style="opacity:0.004" fill="#fefffe" d="M 85.5,166.5 C 86.8333,167.167 86.8333,167.167 85.5,166.5 Z"/></g>
<g><path style="opacity:0.004" fill="#fefffe" d="M 72.5,177.5 C 73.8333,178.167 73.8333,178.167 72.5,177.5 Z"/></g>
<g><path style="opacity:0.004" fill="#fefffe" d="M 210.5,177.5 C 211.833,178.167 211.833,178.167 210.5,177.5 Z"/></g>
<g><path style="opacity:0.004" fill="#fefffe" d="M 219.5,177.5 C 220.833,178.167 220.833,178.167 219.5,177.5 Z"/></g>
<g><path style="opacity:0.004" fill="#fefffe" d="M 145.5,184.5 C 146.833,185.167 146.833,185.167 145.5,184.5 Z"/></g>
<g><path style="opacity:0.004" fill="#fefffe" d="M 200.5,185.5 C 201.833,186.167 201.833,186.167 200.5,185.5 Z"/></g>
<g><path style="opacity:0.004" fill="#fefffe" d="M 150.5,195.5 C 151.833,196.167 151.833,196.167 150.5,195.5 Z"/></g>
<g><path style="opacity:0.004" fill="#fefffe" d="M 130.5,220.5 C 131.833,221.167 131.833,221.167 130.5,220.5 Z"/></g>
<g><path style="opacity:0.004" fill="#fefffe" d="M 245.5,260.5 C 246.833,261.167 246.833,261.167 245.5,260.5 Z"/></g>
<g><path style="opacity:0.004" fill="#fefffe" d="M 268.5,271.5 C 269.833,272.167 269.833,272.167 268.5,271.5 Z"/></g>
<g><path style="opacity:0.004" fill="#fefffe" d="M 36.5,272.5 C 35.8333,273.167 35.8333,273.167 36.5,272.5 Z"/></g>
<g><path style="opacity:0.004" fill="#fefffe" d="M 273.5,285.5 C 274.833,286.167 274.833,286.167 273.5,285.5 Z"/></g>
</svg>
